<svg width="60" height="60" viewBox="0 0 60 60" xmlns="http://www.w3.org/2000/svg">
    <g fill="#FF7043" fill-opacity="1" fill-rule="evenodd">
        <!-- This path data is from your paw-pattern.svg -->
        <path d="M30 40c3.5 0 6.5-2 8-5 1.5-3 0-6-3-6s-5 2-5 5c0 3 2 6 0 6zm-8-11c2.8 0 5-2.2 5-5s-2.2-5-5-5-5 2.2-5 5 2.2 5 5 5zm16 0c2.8 0 5-2.2 5-5s-2.2-5-5-5-5 2.2-5 5 2.2 5 5 5zm12 6c2.8 0 5-2.2 5-5s-2.2-5-5-5-5 2.2-5 5 2.2 5 5 5zm-32 0c2.8 0 5-2.2 5-5s-2.2-5-5-5-5 2.2-5 5 2.2 5 5 5z"/>
    </g>
</svg> 